<svg width="60" height="75" viewBox="0 0 60 75" fill="none" xmlns="http://www.w3.org/2000/svg">
<path fill-rule="evenodd" clip-rule="evenodd" d="M50.6897 50C56.4255 44.7179 60 37.2625 60 29C60 12.9837 46.5685 0 30 0C13.4315 0 0 12.9837 0 29C0 37.2671 3.57851 44.7262 9.31985 50.0088L30.0027 75L50.6919 50H50.6897Z" fill="#FFD324"/>
<circle cx="30" cy="29" r="16" fill="white"/>
<path d="M27.525 34.6568L22.575 29.7068L23.989 28.2928L27.643 31.9428L27.525 31.8278L36.01 23.3428L37.424 24.7568L28.939 33.2428L27.526 34.6558L27.525 34.6568Z" fill="url(#paint0_linear_997:5923)"/>
<defs>
<linearGradient id="paint0_linear_997:5923" x1="39.252" y1="19.5574" x2="21.2327" y2="26.2531" gradientUnits="userSpaceOnUse">
<stop stop-color="#333333"/>
<stop offset="1" stop-color="#191919"/>
</linearGradient>
</defs>
</svg>
